<svg width="25" height="21" viewBox="0 0 25 21" fill="none" xmlns="http://www.w3.org/2000/svg">
<path d="M12.5002 14.5833C12.2867 14.5833 12.0825 14.4958 11.9356 14.3417L6.46688 8.6125C5.99293 8.11667 6.34501 7.29167 7.03147 7.29167H9.89605V1.30208C9.89605 0.584375 10.4804 0 11.1981 0H13.8023C14.52 0 15.1044 0.584375 15.1044 1.30208V7.29167H17.969C18.6554 7.29167 19.0075 8.11667 18.5336 8.6125L13.0648 14.3417C12.9179 14.4958 12.7138 14.5833 12.5002 14.5833Z" fill="#292929"/>
<path d="M23.1771 20.8333H1.82292C0.817708 20.8333 0 20.0156 0 19.0104V18.4895C0 17.4843 0.817708 16.6666 1.82292 16.6666H23.1771C24.1823 16.6666 25 17.4843 25 18.4895V19.0104C25 20.0156 24.1823 20.8333 23.1771 20.8333Z" fill="#292929"/>
</svg>
