<svg width="40" height="40" viewBox="0 0 40 40" fill="none" xmlns="http://www.w3.org/2000/svg">
<circle cx="20" cy="20" r="20" fill="#2F49D0"/>
<mask id="mask0" style="mask-type:alpha" maskUnits="userSpaceOnUse" x="0" y="0" width="40" height="40">
<circle cx="20" cy="20" r="20" fill="#C4C4C4"/>
</mask>
<g mask="url(#mask0)">
</g>
<path d="M26.4133 20.1395C26.342 20.0665 26.2568 20.0085 26.1627 19.9688C26.0687 19.9291 25.9677 19.9085 25.8656 19.9082C25.7635 19.9079 25.6624 19.928 25.5681 19.9672C25.4739 20.0064 25.3883 20.0639 25.3166 20.1365C25.2448 20.2091 25.1882 20.2952 25.15 20.3899C25.1118 20.4846 25.0929 20.5859 25.0943 20.688C25.0957 20.7901 25.1174 20.8909 25.1582 20.9845C25.1989 21.0781 25.2579 21.1626 25.3317 21.2332C25.9843 21.8754 26.502 22.6415 26.8546 23.4865C27.2071 24.3315 27.3873 25.2384 27.3847 26.154C27.3847 27.0948 24.6878 28.4616 20.4616 28.4616C16.2353 28.4616 13.5385 27.0941 13.5385 26.1524C13.5359 25.2431 13.7137 24.3423 14.0616 23.5022C14.4095 22.6621 14.9206 21.8993 15.5653 21.258C15.6382 21.1869 15.6963 21.1021 15.7361 21.0084C15.776 20.9147 15.7968 20.814 15.7975 20.7121C15.7981 20.6103 15.7786 20.5094 15.7399 20.4151C15.7012 20.3209 15.6442 20.2353 15.5722 20.1633C15.5002 20.0913 15.4146 20.0343 15.3204 19.9957C15.2262 19.957 15.1252 19.9374 15.0234 19.938C14.9216 19.9387 14.8209 19.9596 14.7272 19.9994C14.6335 20.0393 14.5486 20.0974 14.4775 20.1703C13.6894 20.9543 13.0646 21.8868 12.6393 22.9139C12.2141 23.941 11.9968 25.0423 12 26.154C12 28.6521 16.3593 30.0001 20.4616 30.0001C24.5639 30.0001 28.9231 28.6521 28.9231 26.154C28.9265 25.0348 28.7063 23.9263 28.2753 22.8934C27.8443 21.8606 27.2112 20.9243 26.4133 20.1395Z" fill="white"/>
<path d="M20.4615 20.7692C21.5265 20.7692 22.5676 20.4534 23.4531 19.8618C24.3385 19.2701 25.0287 18.4291 25.4363 17.4452C25.8438 16.4613 25.9504 15.3786 25.7427 14.3341C25.5349 13.2896 25.0221 12.3302 24.269 11.5771C23.516 10.8241 22.5565 10.3112 21.512 10.1035C20.4675 9.8957 19.3848 10.0023 18.4009 10.4099C17.417 10.8174 16.576 11.5076 15.9844 12.3931C15.3927 13.2786 15.0769 14.3196 15.0769 15.3846C15.0786 16.8122 15.6464 18.1808 16.6558 19.1903C17.6653 20.1997 19.0339 20.7676 20.4615 20.7692ZM20.4615 11.5385C21.2222 11.5385 21.9658 11.764 22.5983 12.1867C23.2308 12.6093 23.7238 13.21 24.0149 13.9128C24.306 14.6155 24.3822 15.3889 24.2338 16.135C24.0854 16.881 23.7191 17.5664 23.1812 18.1042C22.6433 18.6421 21.9579 19.0085 21.2119 19.1569C20.4658 19.3053 19.6925 19.2291 18.9897 18.938C18.2869 18.6469 17.6862 18.1539 17.2636 17.5214C16.8409 16.8889 16.6154 16.1453 16.6154 15.3846C16.6166 14.3649 17.0222 13.3873 17.7432 12.6663C18.4642 11.9453 19.4418 11.5397 20.4615 11.5385Z" fill="white"/>
</svg>
